<?xml version="1.0" encoding="utf-8"?>
<!-- Generator: Adobe Illustrator 28.3.0, SVG Export Plug-In . SVG Version: 6.00 Build 0)  -->
<svg version="1.1" id="Layer_1" xmlns="http://www.w3.org/2000/svg" xmlns:xlink="http://www.w3.org/1999/xlink" x="0px" y="0px"
	 viewBox="0 0 992.2 172.3" style="enable-background:new 0 0 992.2 172.3;" xml:space="preserve">
<style type="text/css">
	.st0{fill:#272727;}
</style>
<g>
	<path class="st0" d="M840.7,40.9c-7.8,0-16.1,3.6-21.4,10.9v-5.9c0-1.7-0.8-2.5-2.5-2.5H798c-1.7,0-2.5,0.8-2.5,2.5V118
		c0,1.7,0.8,2.5,2.5,2.5h18.7c1.7,0,2.5-0.8,2.5-2.5V77.4c0-6.8,5.6-12.2,12.2-12.2c6.6,0,12.1,5.4,12.1,12.2V118
		c0,1.7,0.7,2.5,2.4,2.5h18.9c1.7,0,2.5-0.8,2.5-2.5V67.2C867.4,52.8,855.5,40.9,840.7,40.9L840.7,40.9z M739.6,122.9
		c7.8,0,16.1-3.6,21.4-10.9v5.9c0,1.7,0.8,2.5,2.5,2.5h18.7c1.7,0,2.5-0.8,2.5-2.5V45.8c0-1.7-0.8-2.5-2.5-2.5h-18.7
		c-1.7,0-2.5,0.8-2.5,2.5v40.6c0,6.8-5.6,12.2-12.2,12.2s-12.1-5.4-12.1-12.2V45.8c0-1.7-0.7-2.5-2.4-2.5h-18.9
		c-1.7,0-2.5,0.8-2.5,2.5v50.8C712.9,111,724.8,122.9,739.6,122.9L739.6,122.9z M547.9,120.5h18.7c1.7,0,2.5-0.8,2.5-2.5V77.1
		c0-6.6,5.4-12.1,12.4-11.9c7,0,11.9,6.1,11.9,12.4V118c0,1.7,0.8,2.5,2.5,2.5h18.5c1.7,0,2.5-0.8,2.5-2.5V67.4
		c0-13.9-11-26.7-26.3-26.7c-8.2,0-16.6,3.7-21.6,10.9V3.1c0-1.7-1.2-2.9-2.9-2.9c-11.6,0-20.9,9.3-20.9,22.4V118
		C545.4,119.7,546.2,120.5,547.9,120.5L547.9,120.5z M978.3,121.9c7.5,0,13.6-6.1,13.6-13.6s-6.1-13.6-13.6-13.6
		c-7.5,0-13.6,6.1-13.6,13.6S970.8,121.9,978.3,121.9z M915.3,99.7c-8.7,0-15.6-8-15.6-17.7s7-17.8,15.6-17.8
		c8.7,0,15.6,8.2,15.6,17.8S923.9,99.7,915.3,99.7L915.3,99.7z M665.2,99.7c-8.8,0-15.8-8.5-15.8-18.3s7-18.2,15.8-18.2
		c8.8,0,15.5,8.3,15.5,18.2S673.7,99.7,665.2,99.7z M665.2,122.9c20.6,0,40.3-18.5,40.3-41.6s-19.7-41.5-40.3-41.5
		c-20.6,0-40.6,18.7-40.6,41.5S643.9,122.9,665.2,122.9z M446.3,82.4c-1.5,1.2-3.1,0-3.1-3.6c0-10.5,7.3-19.5,16.8-19.5
		c4.4,0,6.8,1.7,8,3.2c1,1.4,1.2,2.5-0.2,3.6L446.3,82.4L446.3,82.4z M460.1,122.7c20.6,0,33.8-12.4,40.9-23.4
		c1.2-1.7,0.8-2.5-0.5-4.2l-8.3-9.3c-2-2.2-3.2-2-4.9,0.2c-5.1,6.6-12.7,15.1-24,15.1c-2.5,0-5.8-0.5-8.8-2.5l37.9-28.5
		c3.4-2.5,3.7-5.9,2.4-9c-3.9-8.5-17.8-21.2-35.2-21.2c-21.1,0-40.8,18.7-40.8,41.5S436.8,122.7,460.1,122.7L460.1,122.7z
		 M389.1,120.3h18.7c1.7,0,2.5-0.8,2.5-2.5V3.2c0-1.7-1.2-2.9-2.9-2.9c-11.2,0-20.9,9.5-20.9,23.1v94.3
		C386.5,119.4,387.4,120.3,389.1,120.3L389.1,120.3z M337.6,99.4c-8.8,0-16-8-16-17.7s7.1-17.8,16-17.8s15.6,8.2,15.6,17.8
		S346.1,99.4,337.6,99.4z M342.4,122.7c20.2,0,35.7-18.3,35.7-40.9s-15.5-41.1-36.4-41.1c-6.1,0-14.4,1.5-21.1,7.6v-45
		c0-1.7-1.2-2.9-2.9-2.9c-11,0-20.9,9.7-20.9,23.4v94c0,1.7,0.8,2.5,2.5,2.5h18.7c1.7,0,2.5-0.8,2.5-2.5v-5.9
		C326.4,120.5,335.5,122.7,342.4,122.7L342.4,122.7z M168.7,120.3h18.7c1.7,0,2.5-0.8,2.5-2.5V77.6c0-7.1,5.6-12.7,12.2-12.6
		c6.6,0,11.9,5.6,11.9,12.1v40.6c0,1.7,0.8,2.5,2.5,2.5h18.7c1.7,0,2.5-0.8,2.5-2.5V77.1c0-6.6,5.8-12.1,12.2-12.1
		c6.6-0.2,11.9,5.4,11.9,12.6v40.1c0,1.7,0.8,2.5,2.5,2.5h18.7c1.5,0,2.5-0.8,2.5-2.5V67.1c0-14.6-10.7-26.3-25.7-26.3
		c-10.9,0-20.1,6.6-24.8,15.1c-4.8-9.9-13.6-15.1-23.8-15.1c-8.8,0-16.6,4.1-21.6,10.7v-5.9c0-1.7-0.8-2.5-2.5-2.5h-18.7
		c-1.7,0-2.5,0.8-2.5,2.5v72.2C166.2,119.4,167,120.3,168.7,120.3L168.7,120.3z M109.4,122.7c7.8,0,16.1-3.6,21.4-10.9v5.9
		c0,1.7,0.8,2.5,2.5,2.5h18.7c1.7,0,2.5-0.8,2.5-2.5V45.5c0-1.7-0.8-2.5-2.5-2.5h-18.7c-1.7,0-2.5,0.8-2.5,2.5v40.6
		c0,6.8-5.6,12.2-12.2,12.2s-12.1-5.4-12.1-12.2V45.5c0-1.7-0.7-2.5-2.4-2.5H85.3c-1.7,0-2.5,0.8-2.5,2.5v50.8
		C82.7,110.8,94.6,122.7,109.4,122.7L109.4,122.7z M2.6,120.3h18.7c1.7,0,2.5-0.8,2.5-2.5V76.8c0-6.6,5.4-12.1,12.2-12.1
		c7.1,0.2,12.1,6.3,12.1,12.6v40.4c0,1.7,0.8,2.5,2.5,2.5h18.5c1.7,0,2.5-0.8,2.5-2.5V67.1c0-13.9-11-26.7-26.3-26.7
		c-8.2,0-16.6,3.7-21.6,10.9V2.9c0-1.7-1.2-2.9-2.9-2.9C9.3,0,0,9.3,0,22.4v95.3C0,119.4,0.8,120.3,2.6,120.3L2.6,120.3z
		 M910.3,122.9c6.8,0,15.8-2.2,21.6-10.9v5.9c0,1.7,0.8,2.5,2.5,2.5h18.7c1.7,0,2.5-0.8,2.5-2.5V3.5c0-1.7-1.2-2.9-2.9-2.9
		c-11.6,0-20.9,9.7-20.9,23.4v24.5c-6.6-6.1-14.8-7.6-20.9-7.6c-20.9,0-36.2,18.5-36.2,41.1S890.1,122.9,910.3,122.9L910.3,122.9z"
		/>
</g>
<g>
	<path class="st0" d="M549.9,135.6v8.9c0,1,0,2-0.1,3c-0.1,1-0.1,1.7-0.1,2.2h0.2c0.7-1.1,1.7-2.1,3-2.8c1.3-0.8,2.9-1.2,4.9-1.2
		c3.1,0,5.6,1.1,7.5,3.3c1.9,2.2,2.8,5.5,2.8,9.9c0,2.9-0.4,5.3-1.3,7.3c-0.9,2-2.1,3.5-3.6,4.5c-1.6,1-3.4,1.5-5.5,1.5
		c-2,0-3.6-0.4-4.8-1.1c-1.2-0.7-2.2-1.6-2.9-2.6h-0.3l-0.9,3.3h-3.5v-36.1H549.9z M556.7,149.5c-1.7,0-3,0.3-4,1
		c-1,0.7-1.7,1.7-2.1,3c-0.4,1.3-0.7,3-0.7,5.1v0.3c0,3,0.5,5.3,1.5,7c1,1.6,2.8,2.4,5.4,2.4c2.1,0,3.8-0.8,4.9-2.5
		c1.1-1.6,1.7-4,1.7-7c0-3.1-0.5-5.4-1.6-7C560.5,150.3,558.9,149.5,556.7,149.5z"/>
	<path class="st0" d="M587.8,145.6c0.5,0,1,0,1.5,0.1c0.5,0.1,1,0.1,1.4,0.2l-0.5,4.3c-0.4-0.1-0.8-0.2-1.3-0.2
		c-0.5-0.1-0.9-0.1-1.4-0.1c-1,0-1.9,0.2-2.8,0.6c-0.9,0.4-1.7,0.9-2.4,1.6c-0.7,0.7-1.2,1.6-1.6,2.6c-0.4,1-0.6,2.2-0.6,3.5v13.5
		h-4.7v-25.5h3.8l0.6,4.6h0.2c0.5-0.9,1.2-1.8,1.9-2.6c0.8-0.8,1.6-1.4,2.6-1.8C585.5,145.9,586.6,145.6,587.8,145.6z"/>
	<path class="st0" d="M606.2,145.7c3.2,0,5.5,0.7,7.1,2.1c1.6,1.4,2.3,3.6,2.3,6.6v17.3h-3.3l-0.9-3.7h-0.2
		c-0.7,0.9-1.5,1.7-2.2,2.3s-1.7,1.1-2.7,1.4c-1,0.3-2.2,0.5-3.7,0.5c-1.5,0-2.9-0.3-4.1-0.8c-1.2-0.6-2.2-1.4-2.8-2.5
		c-0.7-1.1-1-2.6-1-4.3c0-2.6,1-4.6,3-5.9c2-1.3,5-2.1,9.1-2.2l4.4-0.2v-1.4c0-2-0.4-3.4-1.3-4.2c-0.9-0.8-2.1-1.2-3.7-1.2
		c-1.3,0-2.6,0.2-3.8,0.6c-1.2,0.4-2.4,0.8-3.5,1.4l-1.5-3.4c1.2-0.6,2.6-1.1,4.1-1.6C602.9,145.9,604.5,145.7,606.2,145.7z
		 M611,159.2l-3.6,0.2c-3,0.1-5,0.6-6.2,1.5c-1.2,0.9-1.8,2.1-1.8,3.6c0,1.4,0.4,2.4,1.2,3c0.8,0.6,1.9,1,3.2,1
		c2.1,0,3.8-0.6,5.1-1.7c1.3-1.2,2-2.9,2-5.2V159.2z"/>
	<path class="st0" d="M637,145.6c3,0,5.2,0.7,6.8,2.2c1.6,1.5,2.4,3.9,2.4,7.1v16.6h-4.6v-16c0-2-0.4-3.6-1.3-4.6
		c-0.9-1-2.3-1.5-4.1-1.5c-2.6,0-4.5,0.8-5.6,2.3c-1.1,1.6-1.6,3.8-1.6,6.8v13h-4.7v-25.5h3.7l0.7,3.6h0.3c0.5-0.9,1.2-1.6,2.1-2.2
		c0.8-0.6,1.8-1.1,2.8-1.4C634.8,145.8,635.9,145.6,637,145.6z"/>
	<path class="st0" d="M663.7,172.1c-3.1,0-5.6-1.1-7.5-3.3c-1.9-2.2-2.8-5.5-2.8-9.8c0-4.4,0.9-7.7,2.8-10c1.9-2.3,4.4-3.4,7.5-3.4
		c1.3,0,2.5,0.2,3.5,0.5c1,0.4,1.8,0.8,2.6,1.4c0.7,0.6,1.3,1.3,1.8,2h0.3c-0.1-0.5-0.2-1.1-0.2-2c-0.1-0.9-0.1-1.6-0.1-2.3v-9.7
		h4.7v36.1h-3.7l-0.8-3.5h-0.2c-0.5,0.7-1.1,1.4-1.8,2c-0.7,0.6-1.6,1.1-2.6,1.5C666.2,171.9,665.1,172.1,663.7,172.1z M664.8,168.3
		c2.5,0,4.3-0.7,5.3-2.2c1-1.5,1.6-3.6,1.6-6.5v-0.7c0-3-0.5-5.4-1.5-7c-1-1.6-2.8-2.4-5.5-2.4c-2.2,0-3.8,0.8-4.9,2.5
		c-1.1,1.7-1.6,4-1.6,7c0,3,0.5,5.3,1.6,6.8C661,167.5,662.6,168.3,664.8,168.3z"/>
	<path class="st0" d="M688.9,137.8l0.3,0.5c-0.3,1.1-0.6,2.3-1.1,3.6c-0.4,1.3-0.9,2.6-1.4,3.8c-0.5,1.3-1,2.5-1.5,3.6h-3.4
		c0.2-0.9,0.5-1.8,0.7-2.9c0.2-1,0.5-2,0.7-3.1c0.2-1,0.4-2,0.6-3c0.2-1,0.3-1.9,0.5-2.7H688.9z"/>
	<path class="st0" d="M711.6,164.5c0,1.7-0.4,3.1-1.2,4.2c-0.8,1.1-2,2-3.5,2.6s-3.4,0.9-5.6,0.9c-1.8,0-3.3-0.1-4.6-0.4
		c-1.3-0.3-2.5-0.7-3.5-1.2v-4.1c1.1,0.5,2.4,1,3.9,1.4s2.9,0.6,4.4,0.6c2,0,3.4-0.3,4.3-1c0.9-0.6,1.3-1.5,1.3-2.6
		c0-0.6-0.2-1.2-0.5-1.7c-0.4-0.5-1-1-1.9-1.5c-0.9-0.5-2.2-1-3.8-1.7c-1.6-0.6-3-1.3-4.2-1.9c-1.1-0.6-2-1.4-2.6-2.3
		c-0.6-0.9-0.9-2.1-0.9-3.5c0-2.2,0.9-3.9,2.7-5.1c1.8-1.2,4.1-1.8,7-1.8c1.5,0,3,0.2,4.4,0.5c1.4,0.3,2.7,0.7,3.9,1.3l-1.5,3.6
		c-1.1-0.5-2.3-0.9-3.4-1.2c-1.2-0.3-2.4-0.5-3.6-0.5c-1.6,0-2.8,0.3-3.6,0.8c-0.8,0.5-1.3,1.2-1.3,2.1c0,0.7,0.2,1.3,0.6,1.7
		c0.4,0.5,1.1,0.9,2,1.4c0.9,0.4,2.2,1,3.8,1.6c1.6,0.6,2.9,1.2,4,1.8c1.1,0.6,2,1.4,2.6,2.3C711.2,161.9,711.6,163.1,711.6,164.5z"
		/>
	<path class="st0" d="M736.5,135.6v8.9c0,1,0,2-0.1,3c-0.1,1-0.1,1.7-0.1,2.2h0.2c0.7-1.1,1.7-2.1,3-2.8c1.3-0.8,2.9-1.2,4.9-1.2
		c3.1,0,5.6,1.1,7.5,3.3c1.9,2.2,2.8,5.5,2.8,9.9c0,2.9-0.4,5.3-1.3,7.3c-0.9,2-2.1,3.5-3.6,4.5c-1.6,1-3.4,1.5-5.5,1.5
		c-2,0-3.6-0.4-4.8-1.1c-1.2-0.7-2.2-1.6-2.9-2.6h-0.3l-0.9,3.3h-3.5v-36.1H736.5z M743.3,149.5c-1.7,0-3,0.3-4,1
		c-1,0.7-1.7,1.7-2.1,3c-0.4,1.3-0.7,3-0.7,5.1v0.3c0,3,0.5,5.3,1.5,7c1,1.6,2.8,2.4,5.4,2.4c2.1,0,3.8-0.8,4.9-2.5
		c1.1-1.6,1.7-4,1.7-7c0-3.1-0.5-5.4-1.6-7C747.1,150.3,745.5,149.5,743.3,149.5z"/>
	<path class="st0" d="M772.1,145.6c2.2,0,4.1,0.5,5.7,1.4c1.6,0.9,2.8,2.3,3.7,4c0.8,1.7,1.3,3.8,1.3,6.1v2.6h-17.3
		c0,2.7,0.8,4.8,2.1,6.3c1.4,1.5,3.3,2.2,5.7,2.2c1.6,0,3.1-0.2,4.3-0.5c1.3-0.3,2.6-0.8,3.9-1.4v3.9c-1.3,0.6-2.6,1-3.9,1.3
		c-1.3,0.3-2.8,0.4-4.6,0.4c-2.5,0-4.6-0.5-6.5-1.5c-1.9-1-3.3-2.5-4.3-4.4c-1-1.9-1.6-4.3-1.6-7.2c0-2.8,0.5-5.2,1.4-7.2
		c0.9-2,2.3-3.5,4-4.6C767.7,146.2,769.8,145.6,772.1,145.6z M772.1,149.3c-1.9,0-3.4,0.6-4.5,1.8c-1.1,1.2-1.8,3-2,5.3h12.6
		c0-1.4-0.2-2.6-0.7-3.7c-0.4-1.1-1.1-1.9-2-2.5C774.6,149.6,773.4,149.3,772.1,149.3z"/>
	<path class="st0" d="M806.9,164.5c0,1.7-0.4,3.1-1.2,4.2c-0.8,1.1-2,2-3.5,2.6s-3.4,0.9-5.6,0.9c-1.8,0-3.3-0.1-4.6-0.4
		c-1.3-0.3-2.5-0.7-3.5-1.2v-4.1c1.1,0.5,2.4,1,3.9,1.4c1.5,0.4,2.9,0.6,4.4,0.6c2,0,3.4-0.3,4.3-1c0.9-0.6,1.3-1.5,1.3-2.6
		c0-0.6-0.2-1.2-0.5-1.7c-0.4-0.5-1-1-1.9-1.5c-0.9-0.5-2.2-1-3.8-1.7c-1.6-0.6-3-1.3-4.2-1.9c-1.1-0.6-2-1.4-2.6-2.3
		c-0.6-0.9-0.9-2.1-0.9-3.5c0-2.2,0.9-3.9,2.7-5.1c1.8-1.2,4.1-1.8,7-1.8c1.5,0,3,0.2,4.4,0.5c1.4,0.3,2.7,0.7,3.9,1.3l-1.5,3.6
		c-1.1-0.5-2.3-0.9-3.4-1.2c-1.2-0.3-2.4-0.5-3.6-0.5c-1.6,0-2.8,0.3-3.6,0.8c-0.8,0.5-1.3,1.2-1.3,2.1c0,0.7,0.2,1.3,0.6,1.7
		c0.4,0.5,1.1,0.9,2,1.4c0.9,0.4,2.2,1,3.8,1.6c1.6,0.6,2.9,1.2,4,1.8c1.1,0.6,2,1.4,2.6,2.3C806.6,161.9,806.9,163.1,806.9,164.5z"
		/>
	<path class="st0" d="M822.8,168.3c0.7,0,1.3-0.1,2-0.2c0.7-0.1,1.3-0.3,1.8-0.5v3.6c-0.5,0.2-1.2,0.4-2.1,0.6
		c-0.9,0.2-1.8,0.2-2.7,0.2c-1.4,0-2.7-0.2-3.8-0.7c-1.1-0.5-2-1.3-2.7-2.5c-0.7-1.2-1-2.8-1-4.8v-14.4h-3.5v-2.2l3.7-1.7l1.6-5.5
		h2.9v5.8h7.4v3.6H819V164c0,1.4,0.3,2.5,1,3.2C820.7,168,821.6,168.3,822.8,168.3z"/>
	<path class="st0" d="M858,149.7h-6.3v22h-4.7v-22h-4.3v-2.2l4.3-1.4v-1.8c0-2.1,0.3-3.9,1-5.2c0.7-1.3,1.6-2.3,2.9-2.9
		c1.2-0.6,2.8-0.9,4.5-0.9c1.1,0,2,0.1,2.9,0.3c0.9,0.2,1.7,0.4,2.3,0.6l-1.2,3.6c-0.5-0.2-1.1-0.3-1.8-0.5
		c-0.6-0.1-1.3-0.2-2.1-0.2c-1.3,0-2.3,0.4-3,1.3c-0.6,0.9-1,2.2-1,3.9v1.8h6.3V149.7z"/>
	<path class="st0" d="M875.7,145.6c0.5,0,1,0,1.5,0.1c0.5,0.1,1,0.1,1.4,0.2l-0.5,4.3c-0.4-0.1-0.8-0.2-1.3-0.2
		c-0.5-0.1-0.9-0.1-1.4-0.1c-1,0-1.9,0.2-2.8,0.6c-0.9,0.4-1.7,0.9-2.4,1.6c-0.7,0.7-1.2,1.6-1.6,2.6c-0.4,1-0.6,2.2-0.6,3.5v13.5
		h-4.7v-25.5h3.8l0.6,4.6h0.2c0.5-0.9,1.2-1.8,1.9-2.6c0.8-0.8,1.6-1.4,2.6-1.8C873.5,145.9,874.6,145.6,875.7,145.6z"/>
	<path class="st0" d="M886.7,136.4c0.7,0,1.4,0.2,1.9,0.6c0.5,0.4,0.8,1.1,0.8,2.1s-0.3,1.7-0.8,2.1c-0.5,0.4-1.2,0.7-1.9,0.7
		c-0.8,0-1.4-0.2-1.9-0.7c-0.5-0.4-0.8-1.1-0.8-2.1s0.3-1.7,0.8-2.1C885.3,136.6,886,136.4,886.7,136.4z M889,146.1v25.5h-4.7v-25.5
		H889z"/>
	<path class="st0" d="M907.9,145.6c2.2,0,4.1,0.5,5.7,1.4c1.6,0.9,2.8,2.3,3.7,4c0.8,1.7,1.3,3.8,1.3,6.1v2.6h-17.3
		c0,2.7,0.8,4.8,2.1,6.3c1.4,1.5,3.3,2.2,5.7,2.2c1.6,0,3.1-0.2,4.3-0.5c1.3-0.3,2.6-0.8,3.9-1.4v3.9c-1.3,0.6-2.6,1-3.9,1.3
		c-1.3,0.3-2.8,0.4-4.6,0.4c-2.5,0-4.6-0.5-6.5-1.5c-1.9-1-3.3-2.5-4.3-4.4c-1-1.9-1.6-4.3-1.6-7.2c0-2.8,0.5-5.2,1.4-7.2
		c0.9-2,2.3-3.5,4-4.6C903.6,146.2,905.6,145.6,907.9,145.6z M907.9,149.3c-1.9,0-3.4,0.6-4.5,1.8c-1.1,1.2-1.8,3-2,5.3h12.6
		c0-1.4-0.2-2.6-0.7-3.7c-0.4-1.1-1.1-1.9-2-2.5C910.4,149.6,909.3,149.3,907.9,149.3z"/>
	<path class="st0" d="M938.6,145.6c3,0,5.2,0.7,6.8,2.2c1.6,1.5,2.4,3.9,2.4,7.1v16.6h-4.6v-16c0-2-0.4-3.6-1.3-4.6
		c-0.9-1-2.3-1.5-4.1-1.5c-2.6,0-4.5,0.8-5.6,2.3c-1.1,1.6-1.6,3.8-1.6,6.8v13h-4.7v-25.5h3.7l0.7,3.6h0.3c0.5-0.9,1.2-1.6,2.1-2.2
		c0.8-0.6,1.8-1.1,2.8-1.4C936.4,145.8,937.4,145.6,938.6,145.6z"/>
	<path class="st0" d="M965.3,172.1c-3.1,0-5.6-1.1-7.5-3.3c-1.9-2.2-2.8-5.5-2.8-9.8c0-4.4,0.9-7.7,2.8-10c1.9-2.3,4.4-3.4,7.5-3.4
		c1.3,0,2.5,0.2,3.5,0.5c1,0.4,1.8,0.8,2.6,1.4c0.7,0.6,1.3,1.3,1.8,2h0.3c-0.1-0.5-0.2-1.1-0.2-2c-0.1-0.9-0.1-1.6-0.1-2.3v-9.7
		h4.7v36.1h-3.7l-0.8-3.5h-0.2c-0.5,0.7-1.1,1.4-1.8,2c-0.7,0.6-1.6,1.1-2.6,1.5C967.8,171.9,966.6,172.1,965.3,172.1z M966.4,168.3
		c2.5,0,4.3-0.7,5.3-2.2c1-1.5,1.6-3.6,1.6-6.5v-0.7c0-3-0.5-5.4-1.5-7c-1-1.6-2.8-2.4-5.5-2.4c-2.2,0-3.8,0.8-4.9,2.5
		c-1.1,1.7-1.6,4-1.6,7c0,3,0.5,5.3,1.6,6.8C962.5,167.5,964.2,168.3,966.4,168.3z"/>
	<path class="st0" d="M986,169c0-1.2,0.3-2,0.9-2.5c0.6-0.5,1.3-0.7,2.2-0.7c0.9,0,1.6,0.2,2.2,0.7c0.6,0.5,0.9,1.3,0.9,2.5
		c0,1.1-0.3,2-0.9,2.5s-1.3,0.8-2.2,0.8c-0.8,0-1.6-0.3-2.2-0.8C986.3,171,986,170.1,986,169z"/>
</g>
</svg>
